<?xml version="1.0" standalone="no"?>
<!DOCTYPE svg PUBLIC "-//W3C//DTD SVG 20010904//EN"
 "http://www.w3.org/TR/2001/REC-SVG-20010904/DTD/svg10.dtd">
<svg version="1.0" xmlns="http://www.w3.org/2000/svg"
 width="1577.000000pt" height="1577.000000pt" viewBox="0 0 1577.000000 1577.000000"
 preserveAspectRatio="xMidYMid meet">
<metadata>
Created by potrace 1.11, written by Peter Selinger 2001-2013
</metadata>
<g transform="translate(0.000000,1577.000000) scale(0.100000,-0.100000)"
fill="#000000" stroke="none">
<path d="M14 12091 c-2 -2 -4 -1898 -4 -4213 0 -3359 3 -4208 13 -4209 16 -1
15695 -1 15723 0 l21 1 -1 4212 -1 4212 -7873 1 c-4331 0 -7876 -2 -7878 -4z
m2056 -791 c14 -56 651 -2593 655 -2610 2 -8 58 -231 125 -495 67 -264 123
-487 125 -495 2 -8 72 -287 155 -620 83 -333 153 -612 155 -620 5 -21 265
-1053 268 -1064 3 -8 38 146 53 229 3 17 25 128 49 248 25 120 47 228 49 240
3 17 98 488 121 602 20 98 88 435 91 455 3 14 21 103 40 199 20 96 37 183 39
193 2 11 20 100 40 198 20 98 38 189 40 202 3 13 9 46 15 73 6 28 12 61 15 75
2 14 9 45 14 70 8 34 127 635 155 780 2 14 14 70 25 125 11 55 23 114 25 130
3 17 8 39 10 50 2 11 11 54 19 95 9 41 18 86 20 100 3 14 16 84 30 155 15 72
28 141 31 155 2 14 34 174 69 355 60 303 71 363 81 420 4 21 23 123 31 165 11
54 28 146 31 165 1 11 9 55 17 98 7 42 12 95 11 116 -3 50 -44 136 -86 182
-18 19 -38 42 -45 50 -10 12 31 14 303 14 285 1 314 -1 314 -15 0 -13 -37
-203 -65 -337 -3 -13 -7 -35 -10 -50 -3 -16 -10 -48 -15 -73 -10 -44 -16 -70
-25 -120 -2 -14 -34 -169 -69 -345 -36 -176 -67 -331 -69 -345 -3 -14 -10 -45
-16 -70 -5 -25 -12 -58 -15 -74 -8 -45 -21 -111 -72 -356 -25 -124 -47 -234
-49 -245 -2 -11 -10 -52 -18 -90 -9 -39 -18 -82 -20 -95 -10 -54 -21 -115 -22
-120 -1 -3 -4 -18 -8 -35 -4 -16 -9 -41 -12 -55 -3 -14 -32 -158 -64 -320 -33
-162 -62 -306 -65 -320 -2 -14 -14 -72 -26 -130 -12 -58 -24 -114 -26 -125 -2
-11 -30 -153 -63 -315 -33 -162 -62 -306 -65 -320 -2 -14 -28 -137 -56 -275
-65 -317 -111 -544 -115 -570 -2 -11 -7 -32 -10 -47 -3 -16 -7 -40 -10 -55 -3
-16 -17 -80 -30 -143 -13 -63 -26 -126 -28 -140 -3 -14 -33 -162 -67 -330 -34
-168 -64 -314 -66 -325 -2 -11 -11 -55 -20 -98 -8 -42 -17 -90 -20 -105 -3
-15 -7 -34 -9 -42 -2 -8 -7 -31 -10 -50 -3 -19 -11 -55 -16 -80 -6 -25 -12
-54 -15 -65 -9 -48 -24 -122 -28 -145 -3 -14 -15 -72 -27 -130 -11 -58 -21
-118 -22 -135 0 -16 17 -104 37 -194 20 -90 35 -165 33 -167 -1 -2 -312 -4
-691 -6 -603 -3 -688 -1 -696 12 -4 8 -38 128 -75 265 -38 138 -77 282 -87
320 -11 39 -80 295 -155 570 -75 275 -180 664 -235 865 -55 201 -101 372 -103
380 -5 19 -114 424 -339 1250 -247 908 -373 1371 -460 1695 -42 154 -82 303
-90 330 -20 68 -49 177 -86 315 -17 63 -34 129 -40 145 -5 17 -20 73 -34 125
-13 52 -63 235 -110 407 -47 172 -88 327 -91 345 l-6 34 736 0 735 -1 10 -35z
m4970 -25 c0 -33 0 -1008 0 -2167 l0 -2108 870 0 870 0 -2 2159 c-1 1188 1
2164 6 2168 4 4 272 8 596 8 l588 0 0 -3527 0 -3528 -594 0 -594 0 0 1240 0
1240 -112 -40 c-62 -22 -256 -91 -430 -153 l-317 -112 -440 1 -439 1 0 -1083
c0 -596 -3 -1087 -5 -1091 -6 -9 -1164 -9 -1173 0 -4 4 -7 494 -8 1089 l-1
1082 -140 1 c-97 1 -139 5 -138 12 1 6 36 69 76 140 41 70 85 148 99 173 14
25 44 77 66 115 l40 70 0 2155 c0 1185 1 2169 1 2185 l1 31 590 0 590 0 0 -61z
m8050 55 c0 -2 -42 -109 -92 -237 l-93 -233 -350 -1 c-440 -1 -822 -9 -1060
-24 -38 -2 -115 -7 -170 -10 -142 -8 -234 -15 -280 -19 -22 -3 -76 -7 -120
-11 -44 -4 -91 -8 -105 -10 -14 -2 -50 -7 -80 -10 -96 -11 -282 -40 -330 -51
-14 -3 -36 -8 -50 -10 -200 -37 -367 -113 -510 -233 -76 -64 -105 -96 -154
-171 -71 -107 -87 -170 -82 -325 11 -377 169 -608 671 -983 47 -35 230 -154
425 -277 129 -81 258 -162 285 -180 28 -17 167 -106 310 -196 512 -322 817
-552 1070 -803 180 -180 287 -321 372 -491 62 -124 131 -319 148 -420 2 -11 9
-47 14 -80 19 -106 23 -157 25 -295 14 -887 -408 -1557 -1149 -1825 -90 -33
-288 -87 -360 -99 -144 -24 -177 -28 -305 -41 -119 -13 -426 -17 -1370 -18
-564 -1 -1054 -1 -1090 1 -71 4 -74 7 -95 82 -4 14 -13 39 -20 55 -16 37 -103
269 -115 308 l-9 28 97 -5 c439 -23 1429 -23 1697 -1 22 2 94 6 160 10 66 4
127 8 135 10 8 2 51 6 95 10 44 4 94 9 110 11 17 3 48 7 70 10 22 2 55 6 73 9
17 3 47 7 65 10 17 2 43 7 57 10 14 3 36 7 50 10 120 22 276 66 345 96 78 34
151 92 192 152 152 225 191 385 188 762 -2 170 -6 227 -23 301 -54 239 -182
453 -372 624 -96 86 -329 261 -520 390 -143 97 -1239 800 -1246 800 -8 0 -237
169 -319 235 -399 323 -641 718 -710 1160 -13 88 -14 402 -1 485 3 19 8 55 11
80 8 58 38 187 63 270 116 383 389 755 677 921 155 90 357 159 535 184 25 3
72 10 105 15 33 5 119 12 190 16 72 4 131 7 132 8 6 4 2813 1 2813 -4z"/>
</g>
</svg>
